<?xml version="1.0" standalone="no"?>
<!DOCTYPE svg PUBLIC "-//W3C//DTD SVG 20010904//EN"
 "http://www.w3.org/TR/2001/REC-SVG-20010904/DTD/svg10.dtd">
<svg version="1.0" xmlns="http://www.w3.org/2000/svg"
 width="512.000000pt" height="512.000000pt" viewBox="0 0 512.000000 512.000000"
 preserveAspectRatio="xMidYMid meet">

<g transform="translate(0.000000,512.000000) scale(0.100000,-0.100000)"
fill="#000000" stroke="none">
<path d="M301 3904 c-123 -33 -209 -105 -264 -222 l-32 -67 0 -1055 0 -1055
32 -67 c56 -119 141 -190 268 -223 52 -13 314 -15 2252 -15 1566 0 2207 3
2245 11 124 26 224 107 281 227 l32 67 0 1055 0 1055 -32 67 c-57 120 -157
201 -281 227 -38 8 -678 11 -2250 10 -1887 0 -2205 -2 -2251 -15z m4493 -148
c62 -19 109 -56 143 -114 l28 -47 0 -1035 0 -1035 -28 -47 c-34 -58 -81 -95
-143 -114 -71 -21 -4397 -21 -4468 0 -62 19 -109 56 -143 114 l-28 47 0 1035
0 1035 28 47 c33 56 80 95 139 113 66 21 4404 21 4472 1z"/>
<path d="M365 3588 c-47 -25 -45 14 -45 -1030 0 -970 0 -988 20 -1008 28 -28
53 -32 200 -28 124 3 133 4 151 27 26 32 24 73 -4 99 -21 19 -34 22 -120 22
l-97 0 0 890 0 890 645 0 645 0 0 -890 0 -890 -419 0 -420 0 -20 -26 c-12 -15
-21 -33 -21 -40 0 -26 23 -62 47 -73 17 -8 550 -11 1914 -11 2018 0 1935 -2
1953 45 3 9 6 460 6 1001 0 966 0 984 -20 1004 -11 11 -30 22 -42 25 -13 3
-227 4 -476 3 l-454 -3 -19 -24 c-25 -30 -24 -76 1 -101 17 -17 33 -20 115
-20 52 0 95 -2 95 -5 0 -3 -65 -93 -144 -200 -80 -107 -147 -203 -151 -214 -8
-26 10 -67 37 -84 26 -17 155 -22 446 -19 157 2 174 4 192 22 30 30 27 83 -6
109 -25 20 -39 21 -240 21 l-213 0 136 185 135 185 229 0 229 0 0 -890 0 -890
-140 0 c-125 0 -141 2 -146 17 -13 46 -67 143 -94 168 l-29 28 35 40 c140 154
119 402 -44 520 -67 49 -134 71 -211 71 -125 0 -237 -62 -299 -164 -63 -106
-65 -170 -5 -198 49 -23 80 -4 108 66 22 58 61 104 109 129 40 21 132 21 172
0 36 -19 91 -79 105 -114 16 -41 10 -114 -12 -160 -34 -70 -73 -93 -202 -118
-57 -11 -67 -107 -14 -133 12 -6 42 -13 67 -17 24 -3 59 -15 77 -26 31 -19 83
-83 83 -101 0 -5 -191 -8 -425 -8 l-425 0 0 890 0 890 94 0 c104 0 130 11 142
62 5 22 0 33 -24 58 l-30 30 -1579 0 c-1123 -1 -1584 -4 -1598 -12z m2840
-1028 l0 -885 -645 0 -645 0 -3 875 c-1 481 0 881 3 888 3 10 138 12 647 10
l643 -3 0 -885z"/>
<path d="M2376 3149 c-34 -27 -36 -77 -3 -107 20 -19 35 -22 115 -22 l92 0 0
-515 c0 -502 1 -516 20 -535 38 -38 100 -22 119 31 14 41 15 1059 1 1108 -16
55 -30 60 -181 61 -123 0 -139 -2 -163 -21z"/>
<path d="M1005 3177 c-130 -43 -223 -140 -260 -269 -14 -49 -16 -104 -13 -375
l3 -318 27 -57 c35 -76 109 -153 183 -191 56 -30 67 -32 165 -32 99 0 109 2
172 33 82 40 157 119 190 200 22 55 23 70 26 365 3 255 0 318 -13 370 -28 112
-113 211 -220 258 -63 27 -201 35 -260 16z m231 -173 c30 -18 60 -48 79 -78
l30 -49 3 -303 c3 -292 2 -305 -19 -353 -39 -91 -116 -141 -216 -141 -74 0
-129 25 -174 79 -56 64 -59 87 -59 407 0 283 1 290 24 340 41 87 123 136 222
131 48 -2 73 -10 110 -33z"/>
</g>
</svg>
